# xmcd CD database file
#
# Track frame offsets:
#	150
#	14527
#	27772
#	40730
#	55570
#	69887
#	83372
#	96737
#	108927
#	122410
#	138500
#	150922
#	162287
#	173980
#	187872
#	201467
#
# Disc length: 2867 seconds
#
# Revision: 0
# Processed by: cddbd v1.5.1PL0 Copyright (c) Steve Scherf et al.
# Submitted via: CDex 1.51
#
DISCID=c10b3110
DTITLE=The Carter Family - RCA Country Legends
DYEAR=2004
DGENRE=Country
TTITLE0=Wildwood Flower
TTITLE1=Bury Me Beneath the Weeping Willow
TTITLE2=Keep on the Sunny Side
TTITLE3=Little Darling, Pal of Mine
TTITLE4=My Clinch Mountain Home
TTITLE5=Wabash Cannonball
TTITLE6=The Foggy Mountain Top
TTITLE7=Lonesome Valley
TTITLE8=The Girl on the Greenbriar Shore
TTITLE9=Hello, Central! Give Me Heaven
TTITLE10=Worried Man Blues
TTITLE11=Lanesome Homesick Blues
TTITLE12=Jammie Brown the Newsboy
TTITLE13=Keep on the Firing Line
TTITLE14=The Cannon-Ball
TTITLE15=I'm Thinking Tonight of my Blue Eyes
EXTD=YEAR: 2004
EXTT0=
EXTT1=
EXTT2=
EXTT3=
EXTT4=
EXTT5=
EXTT6=
EXTT7=
EXTT8=
EXTT9=
EXTT10=
EXTT11=
EXTT12=
EXTT13=
EXTT14=
EXTT15=
PLAYORDER=
